<?xml version="1.0" standalone="no"?>
<!DOCTYPE svg PUBLIC "-//W3C//DTD SVG 20010904//EN"
 "http://www.w3.org/TR/2001/REC-SVG-20010904/DTD/svg10.dtd">
<svg version="1.0" xmlns="http://www.w3.org/2000/svg"
 width="806.000000pt" height="762.000000pt" viewBox="0 0 806.000000 762.000000"
 preserveAspectRatio="xMidYMid meet">

<g transform="translate(0.000000,762.000000) scale(0.100000,-0.100000)"
fill="#000000" stroke="none">
<path d="M4026 7305 c-2 -6 0 -139 5 -296 23 -739 27 -954 16 -967 -20 -24
-51 -10 -58 28 -4 19 -12 280 -18 580 -12 547 -16 646 -30 654 -4 3 -54 -1
-112 -9 -57 -8 -120 -16 -139 -18 -38 -5 -135 -23 -190 -37 -134 -33 -176 -45
-267 -76 -56 -19 -122 -43 -145 -53 -24 -11 -61 -27 -83 -36 -104 -44 -282
-140 -385 -208 -326 -217 -580 -468 -799 -793 -67 -99 -74 -120 -38 -110 12 3
34 6 50 6 20 0 27 5 27 20 0 33 28 35 85 7 33 -16 57 -22 66 -17 17 11 16 12
-48 44 -38 19 -53 32 -53 46 0 25 27 37 50 22 69 -43 182 -93 197 -88 15 6 15
8 -3 20 -10 7 -57 33 -103 57 -88 47 -103 62 -79 85 12 12 27 7 110 -36 89
-46 148 -64 133 -40 -4 6 -25 20 -48 32 -23 11 -47 29 -54 38 -7 10 -26 23
-43 30 -27 11 -43 40 -22 40 8 0 142 -55 195 -80 20 -10 31 -10 38 -3 8 8 -3
19 -42 39 -30 14 -68 38 -85 53 -17 14 -39 31 -50 37 -31 19 -7 28 38 15 24
-7 74 -28 111 -47 74 -37 97 -42 97 -20 0 19 -21 34 -108 82 -71 38 -100 64
-72 64 7 0 51 -21 99 -46 79 -41 150 -59 167 -41 3 3 -47 31 -110 64 -97 48
-116 62 -116 80 0 18 6 23 24 23 23 0 115 -44 194 -92 25 -15 39 -18 54 -11
19 8 8 17 -88 68 -114 60 -125 69 -117 92 9 23 40 14 147 -42 96 -51 146 -67
146 -47 0 17 -40 45 -122 88 -45 23 -84 47 -86 53 -7 22 32 10 106 -30 95 -52
149 -71 170 -60 18 10 10 17 -123 88 -89 48 -113 74 -78 87 12 5 57 -13 136
-53 110 -57 157 -73 157 -53 0 5 -21 20 -47 33 -27 13 -50 26 -53 29 -3 3 -32
19 -65 35 -43 22 -60 36 -60 50 0 22 38 33 58 17 7 -5 56 -33 109 -61 72 -39
106 -51 130 -49 30 3 24 8 -75 58 -131 67 -152 82 -144 104 9 24 43 20 101
-13 149 -83 188 -101 220 -101 21 0 57 -13 93 -34 65 -38 110 -55 99 -37 -4 6
-12 11 -17 11 -6 0 -27 11 -47 25 -20 14 -44 25 -53 25 -9 0 -22 7 -29 15 -6
8 -48 33 -93 56 -125 64 -161 86 -165 98 -7 22 27 10 145 -54 66 -36 133 -65
148 -65 27 0 308 -141 530 -265 22 -12 117 -62 210 -110 94 -48 178 -95 188
-103 9 -8 17 -26 17 -40 0 -19 -4 -23 -20 -19 -11 3 -20 1 -20 -4 0 -5 5 -9
11 -9 29 0 59 -70 42 -97 -6 -8 -124 -15 -388 -23 -209 -6 -450 -15 -535 -21
-85 -5 -247 -14 -360 -19 -113 -6 -266 -15 -340 -21 -74 -6 -200 -14 -280 -19
-151 -8 -338 -24 -500 -41 -52 -6 -147 -14 -210 -19 -63 -5 -149 -13 -190 -19
-41 -6 -96 -11 -122 -11 -26 0 -49 -4 -53 -10 -3 -5 11 -21 32 -34 38 -25 39
-25 163 -15 69 5 149 14 179 19 30 6 91 10 135 11 45 0 108 5 141 10 33 4 139
13 235 19 96 5 216 14 265 19 50 6 189 15 310 21 121 6 276 15 345 20 150 12
811 36 1405 51 841 21 2549 8 2890 -21 175 -16 240 -13 286 11 23 11 39 22 36
25 -4 4 -188 14 -617 33 -418 19 -1196 32 -1925 34 l-750 2 0 69 c-1 46 3 70
12 73 7 3 56 -16 108 -42 67 -34 99 -45 107 -37 7 7 -18 25 -83 60 -52 28
-106 57 -121 66 -35 19 -38 56 -6 56 12 0 56 -18 99 -40 79 -40 139 -55 109
-26 -8 7 -46 30 -85 51 -77 40 -143 91 -132 101 9 9 77 -12 140 -43 47 -24 82
-27 80 -9 -1 5 -55 36 -120 70 -92 48 -119 66 -121 84 -6 39 22 35 122 -18 66
-35 101 -48 111 -42 17 9 11 13 -145 95 -70 37 -86 49 -88 71 -5 37 14 34 119
-20 53 -27 96 -44 105 -40 9 4 15 8 13 10 -6 6 -128 74 -186 103 -40 21 -53
33 -53 49 0 13 4 25 8 28 5 3 53 -17 107 -45 54 -27 104 -48 112 -45 22 9 9
21 -54 52 -115 55 -173 94 -173 114 0 31 36 25 124 -20 43 -22 85 -40 93 -40
33 0 2 24 -97 77 -119 62 -135 75 -127 97 10 24 33 20 111 -22 80 -43 113 -54
121 -42 6 9 -33 34 -155 98 -53 28 -76 46 -78 61 -6 37 23 34 110 -13 47 -25
93 -46 102 -46 37 0 5 26 -100 81 -91 48 -110 62 -112 83 -5 38 13 34 146 -34
65 -33 124 -60 131 -60 34 0 -8 30 -134 98 -137 72 -158 87 -152 107 8 23 49
13 143 -36 327 -170 387 -199 414 -199 17 0 30 4 30 9 0 7 -152 91 -372 205
-35 18 -42 36 -15 36 7 0 91 -42 187 -93 328 -175 395 -208 455 -223 33 -9 65
-19 70 -24 6 -4 69 -38 140 -75 72 -37 144 -76 160 -85 17 -10 93 -50 170 -90
77 -40 163 -85 190 -100 28 -15 111 -59 186 -99 75 -39 156 -89 180 -110 24
-21 87 -61 141 -90 53 -28 99 -58 102 -66 8 -23 -19 -18 -64 10 -45 29 -69 33
-50 10 7 -8 18 -15 24 -15 7 0 30 -15 52 -33 72 -61 85 -67 147 -67 l58 0 -18
31 c-10 16 -44 65 -76 107 -225 299 -519 557 -847 744 -97 55 -107 60 -245
122 -44 20 -88 41 -97 46 -10 6 -25 10 -33 10 -8 0 -23 4 -33 9 -28 15 -64 27
-127 46 -33 9 -71 21 -85 25 -14 5 -45 13 -70 18 -25 6 -56 14 -70 17 -143 38
-674 84 -684 60z m-126 -105 c0 -5 -7 -10 -15 -10 -8 0 -15 5 -15 10 0 6 7 10
15 10 8 0 15 -4 15 -10z m-84 -46 c46 -25 84 -52 84 -60 0 -8 -3 -14 -7 -14
-17 1 -177 96 -181 108 -7 21 17 13 104 -34z m748 17 c28 -15 105 -57 171 -91
66 -35 154 -81 195 -103 41 -22 113 -60 160 -84 47 -25 117 -62 155 -83 107
-57 193 -103 528 -280 169 -89 310 -167 313 -172 3 -5 3 -12 -1 -16 -7 -7 -22
1 -300 149 -99 52 -247 131 -330 174 -82 42 -163 85 -180 95 -16 10 -122 66
-235 125 -113 59 -232 122 -265 140 -33 18 -113 60 -177 94 -65 34 -120 66
-123 72 -12 19 39 8 89 -20z m-856 -62 c64 -34 136 -73 160 -86 40 -24 54 -43
31 -43 -17 0 -316 159 -329 175 -25 31 22 15 138 -46z m-99 -50 c86 -45 160
-86 166 -90 5 -5 24 -9 42 -9 49 0 93 -25 93 -54 0 -12 -3 -25 -6 -29 -4 -3
-45 15 -93 40 -47 25 -124 66 -171 91 -160 84 -210 114 -210 123 0 18 24 8
179 -72z m1361 -1 c74 -39 167 -88 205 -108 39 -21 196 -104 350 -185 154 -81
295 -159 314 -173 88 -66 -17 -18 -351 159 -642 339 -676 357 -703 377 -18 13
-17 13 15 7 19 -4 96 -39 170 -77z m-1335 -119 c5 -5 25 -9 44 -9 22 0 68 -18
130 -51 96 -51 111 -63 111 -87 0 -37 -11 -32 -445 201 -168 90 -177 96 -169
108 5 9 304 -139 329 -162z m-390 108 c59 -41 276 -147 300 -147 26 0 286
-129 348 -172 25 -18 35 -47 20 -61 -3 -4 -52 17 -107 47 -56 29 -150 80 -211
111 -314 165 -391 208 -405 221 -12 12 -11 14 11 14 13 0 33 -6 44 -13z m2
-107 c84 -44 166 -80 181 -80 15 0 126 -53 257 -123 208 -110 230 -125 233
-149 2 -16 -1 -28 -6 -28 -7 0 -794 411 -835 437 -8 5 0 23 10 23 4 0 75 -36
160 -80z m-110 -45 c78 -41 155 -75 171 -75 16 0 145 -62 317 -153 260 -138
290 -156 293 -180 2 -16 -2 -27 -9 -27 -10 0 -143 67 -314 160 -27 15 -113 60
-190 101 -77 40 -205 108 -284 149 -132 69 -174 100 -140 100 7 0 77 -34 156
-75z m-221 16 c31 -28 249 -131 277 -131 18 0 37 -4 42 -9 6 -4 78 -43 160
-86 83 -43 164 -85 180 -95 29 -17 261 -139 317 -167 15 -8 30 -23 33 -34 16
-49 -13 -41 -182 49 -92 49 -213 113 -268 142 -55 29 -127 67 -160 85 -33 18
-118 63 -190 100 -207 108 -255 136 -249 146 7 11 27 12 40 0z m-74 -64 c164
-90 220 -117 245 -117 16 0 86 -30 158 -68 72 -38 180 -95 240 -127 61 -32
137 -72 170 -90 33 -18 105 -56 160 -85 105 -56 115 -64 115 -92 0 -28 -22
-22 -137 40 -59 33 -171 92 -248 132 -77 40 -153 81 -170 90 -16 9 -88 47
-160 85 -381 199 -446 235 -439 246 8 14 19 11 66 -14z"/>
<path d="M4664 6961 c3 -5 32 -21 63 -36 32 -15 61 -30 66 -32 4 -2 7 0 7 4 0
9 -118 73 -133 73 -5 0 -6 -4 -3 -9z"/>
<path d="M4825 6880 c4 -6 28 -22 55 -35 83 -42 82 -27 -2 19 -51 28 -63 32
-53 16z"/>
<path d="M5010 6785 c0 -5 70 -43 103 -57 27 -12 20 -1 -16 21 -35 22 -87 43
-87 36z"/>
<path d="M5160 6699 c36 -24 153 -80 158 -75 7 7 12 4 -75 49 -67 35 -120 51
-83 26z"/>
<path d="M5350 6602 c0 -7 62 -39 115 -60 24 -10 -14 18 -57 42 -51 28 -58 30
-58 18z"/>
<path d="M3110 6552 c0 -4 30 -23 68 -42 100 -51 102 -52 102 -42 0 6 -8 12
-17 15 -10 3 -45 22 -78 41 -62 36 -75 41 -75 28z"/>
<path d="M5505 6521 c5 -9 62 -41 72 -41 1 0 3 5 3 10 0 6 -6 10 -14 10 -7 0
-19 7 -26 15 -13 16 -45 21 -35 6z"/>
<path d="M5595 6470 c3 -5 11 -10 16 -10 6 0 7 5 4 10 -3 6 -11 10 -16 10 -6
0 -7 -4 -4 -10z"/>
<path d="M5642 6449 c5 -14 148 -91 161 -86 6 2 -21 21 -59 43 -85 48 -107 57
-102 43z"/>
<path d="M3301 6446 c13 -12 89 -45 89 -39 0 11 -58 43 -77 43 -9 0 -14 -2
-12 -4z"/>
<path d="M3410 6390 c0 -5 7 -10 16 -10 8 0 12 5 9 10 -3 6 -10 10 -16 10 -5
0 -9 -4 -9 -10z"/>
<path d="M3450 6371 c0 -7 153 -91 166 -91 12 0 2 18 -13 23 -10 3 -45 22 -78
41 -63 37 -75 41 -75 27z"/>
<path d="M5835 6344 c31 -24 115 -65 115 -56 0 8 -112 72 -126 72 -5 0 0 -8
11 -16z"/>
<path d="M3640 6272 c0 -12 118 -67 127 -59 3 4 1 7 -5 7 -7 0 -34 14 -60 30
-52 32 -62 35 -62 22z"/>
<path d="M5984 6266 c11 -9 26 -16 33 -16 7 0 13 -4 13 -9 0 -5 7 -11 15 -15
8 -3 15 -2 15 3 0 12 -39 36 -70 45 -24 7 -24 6 -6 -8z"/>
<path d="M6080 6220 c0 -5 5 -10 11 -10 5 0 7 5 4 10 -3 6 -8 10 -11 10 -2 0
-4 -4 -4 -10z"/>
<path d="M3781 6196 c12 -12 82 -46 86 -43 6 6 -61 47 -77 47 -7 0 -11 -2 -9
-4z"/>
<path d="M4285 5832 c-38 -2 -73 -6 -77 -10 -4 -4 -3 -194 2 -422 6 -228 14
-611 20 -850 5 -239 12 -526 16 -638 l7 -204 341 4 c318 4 345 6 406 26 167
56 251 145 298 315 15 56 17 126 17 697 0 686 0 684 -55 806 -67 148 -213 239
-423 263 -94 11 -426 18 -552 13z m461 -311 c119 -9 155 -28 187 -100 20 -45
21 -63 21 -671 1 -699 5 -665 -70 -711 -33 -20 -50 -23 -158 -23 l-121 -1 -6
150 c-4 83 -10 423 -13 758 l-7 607 33 -1 c18 0 78 -4 134 -8z"/>
<path d="M3640 5812 c-19 -2 -38 -6 -42 -10 -6 -7 1 -276 21 -712 21 -459 22
-530 14 -530 -5 0 -18 28 -28 63 -18 61 -62 195 -267 822 -56 171 -107 316
-114 324 -10 11 -29 11 -116 2 -56 -7 -141 -17 -188 -22 -47 -5 -100 -12 -119
-16 l-34 -6 7 -146 c4 -80 9 -175 12 -211 5 -67 38 -684 54 -1005 8 -158 22
-431 34 -638 2 -38 7 -72 12 -76 12 -10 286 7 298 19 5 5 4 101 -3 247 -6 131
-16 337 -22 458 -20 428 -28 581 -35 694 -5 81 -4 112 4 107 6 -3 16 -23 22
-44 6 -20 15 -46 20 -57 5 -11 27 -78 50 -150 23 -71 45 -139 50 -150 5 -11
16 -45 25 -75 9 -30 20 -64 25 -75 8 -20 192 -588 281 -868 l21 -69 177 7 c97
4 178 9 180 11 2 2 -3 275 -13 607 -9 331 -21 764 -27 962 -5 198 -12 402 -15
453 l-6 93 -121 -3 c-67 -1 -138 -4 -157 -6z"/>
<path d="M7711 5768 c-14 -23 -14 -23 8 -4 22 20 25 26 13 26 -4 0 -13 -10
-21 -22z"/>
<path d="M5567 5764 c-3 -4 -7 -333 -8 -733 -1 -399 -2 -861 -3 -1026 l-1
-300 120 -7 c66 -4 273 -14 460 -23 187 -10 343 -19 347 -21 4 -2 9 0 12 5 6
9 10 270 4 276 -2 2 -120 11 -263 20 -143 9 -276 20 -295 24 l-35 7 3 304 c2
168 7 308 10 312 4 3 48 2 97 -3 50 -5 153 -16 229 -24 77 -8 142 -13 144 -11
2 2 4 66 5 142 l2 138 -205 23 c-113 13 -220 26 -237 29 l-33 5 0 264 c0 145
3 266 8 268 13 8 143 -10 471 -63 68 -12 125 -19 126 -18 5 7 15 278 10 278
-3 0 -38 7 -78 14 -159 32 -540 90 -730 111 -160 17 -152 17 -160 9z"/>
<path d="M7617 5693 c-14 -13 -6 -33 13 -33 13 0 20 7 20 20 0 19 -20 27 -33
13z"/>
<path d="M2030 5610 c-225 -46 -283 -59 -288 -64 -6 -7 -67 -555 -107 -961
-30 -310 -65 -652 -79 -777 -9 -73 -19 -170 -22 -215 -6 -75 -5 -83 11 -83 42
0 281 33 288 40 5 4 16 90 24 191 9 105 20 189 27 195 15 15 375 59 386 48 4
-5 25 -87 45 -182 21 -95 43 -180 50 -188 9 -14 24 -14 110 -5 100 10 203 20
218 21 10 0 9 36 -3 79 -5 20 -28 115 -51 211 -23 96 -59 247 -81 335 -22 88
-44 178 -48 200 -5 22 -21 87 -35 145 -15 58 -30 121 -34 140 -5 19 -57 230
-116 468 -108 429 -109 432 -135 431 -14 0 -86 -13 -160 -29z m-32 -417 c15
-63 49 -211 77 -333 14 -63 34 -151 44 -195 11 -44 31 -134 46 -200 15 -66 31
-135 36 -154 4 -19 6 -37 3 -40 -8 -8 -287 -49 -297 -43 -5 2 -6 34 -3 71 3
36 12 161 21 276 8 116 20 244 25 285 5 41 12 120 15 175 7 113 15 195 21 195
2 0 7 -17 12 -37z"/>
<path d="M6744 5579 c-4 -7 -9 -92 -11 -188 -2 -97 -10 -473 -18 -836 -8 -363
-15 -717 -15 -786 l0 -127 53 -6 c125 -16 272 -25 279 -18 4 4 10 180 13 392
4 212 8 391 11 399 9 27 190 -11 245 -51 16 -12 38 -41 49 -65 20 -42 21 -64
23 -361 1 -174 6 -325 10 -334 12 -24 28 -28 177 -44 186 -19 170 -24 153 39
-11 39 -14 115 -12 312 1 148 -3 284 -9 315 -21 111 -78 201 -160 252 -31 19
-33 23 -16 29 10 4 34 13 52 20 42 15 87 59 113 112 31 61 45 293 24 397 -41
196 -152 321 -360 401 -74 29 -345 102 -495 134 -36 7 -72 17 -81 20 -10 4
-20 1 -25 -6z m438 -368 c109 -27 152 -54 186 -116 23 -41 21 -319 -3 -365
-27 -53 -55 -64 -148 -57 -45 3 -99 11 -120 17 l-37 11 6 252 c3 139 7 258 10
265 5 16 18 15 106 -7z"/>
<path d="M915 5344 c-11 -3 -46 -12 -78 -20 -170 -41 -336 -158 -414 -291 -90
-153 -103 -365 -33 -510 52 -105 130 -168 381 -302 202 -108 274 -194 286
-339 11 -134 -38 -200 -164 -224 -53 -10 -65 -9 -99 8 -53 26 -76 76 -82 176
-5 94 4 92 -182 47 l-130 -31 0 -36 c3 -353 203 -495 585 -416 96 20 199 71
265 131 100 92 141 199 141 369 -1 280 -102 424 -416 590 -210 110 -269 162
-300 261 -21 66 -16 148 12 196 11 17 38 45 61 62 35 24 55 30 111 33 61 4 71
2 90 -19 25 -27 40 -74 48 -151 3 -33 11 -58 17 -58 23 0 290 70 297 77 14 14
-19 207 -44 266 -52 115 -142 177 -267 183 -36 2 -74 1 -85 -2z"/>
<path d="M7960 4455 c0 -14 5 -25 10 -25 6 0 10 11 10 25 0 14 -4 25 -10 25
-5 0 -10 -11 -10 -25z"/>
<path d="M3952 3578 c-7 -7 -100 -14 -256 -19 -134 -4 -259 -12 -278 -18 -18
-5 -89 -15 -158 -21 -336 -29 -471 -45 -498 -59 -11 -6 -45 -11 -75 -11 -30 0
-68 -7 -83 -15 -16 -8 -52 -15 -81 -15 -28 0 -55 -4 -58 -10 -3 -5 -33 -10
-65 -10 -32 0 -61 -4 -64 -9 -3 -5 -33 -12 -66 -16 -33 -4 -63 -11 -66 -16 -3
-5 -27 -9 -54 -9 -27 0 -52 -4 -55 -10 -3 -5 -26 -10 -49 -10 -24 0 -57 -7
-72 -15 -16 -8 -41 -15 -56 -15 -15 0 -30 -4 -33 -10 -3 -5 -26 -10 -50 -10
-24 0 -46 -4 -49 -9 -3 -5 -23 -11 -43 -15 -96 -14 -119 -20 -138 -32 -11 -8
-34 -14 -52 -14 -17 0 -35 -4 -38 -10 -3 -5 -21 -10 -40 -10 -19 0 -37 -4 -40
-10 -3 -5 -21 -10 -39 -10 -19 0 -39 -7 -46 -15 -7 -8 -22 -15 -33 -15 -22 0
-81 -17 -109 -31 -10 -5 -27 -9 -38 -9 -11 0 -28 -4 -38 -9 -28 -14 -87 -31
-109 -31 -12 0 -28 -7 -37 -15 -8 -8 -26 -15 -40 -15 -14 0 -26 -4 -26 -10 0
-5 -10 -10 -22 -10 -23 0 -81 -16 -110 -31 -10 -5 -26 -9 -37 -9 -10 0 -24 -7
-31 -15 -7 -8 -23 -15 -36 -15 -12 0 -26 -4 -29 -10 -3 -5 -17 -10 -29 -10
-13 0 -35 -12 -50 -26 -20 -21 -26 -37 -26 -70 0 -37 3 -44 19 -44 11 0 23 5
26 10 3 6 17 10 30 10 13 0 27 5 30 10 3 6 17 10 31 10 13 0 32 4 42 9 45 23
72 34 89 35 17 2 57 17 95 37 10 5 27 9 37 9 11 0 23 5 26 10 3 6 19 10 35 10
16 0 32 5 35 10 3 6 16 10 29 10 12 0 31 7 42 15 10 8 31 15 46 15 15 0 30 5
33 10 3 6 21 10 40 10 19 0 37 5 40 10 3 6 20 10 36 10 17 0 37 7 45 15 9 8
28 15 44 15 16 0 32 5 35 10 3 6 21 10 40 10 19 0 37 5 40 10 3 6 21 10 39 10
17 0 36 4 42 9 5 5 24 12 42 14 18 3 39 11 47 17 15 13 55 -6 55 -26 0 -7 14
-26 30 -44 17 -18 30 -38 30 -46 0 -7 6 -17 13 -21 13 -7 87 -110 113 -155 29
-50 400 -416 474 -467 30 -21 64 -48 74 -60 11 -11 24 -21 30 -21 7 0 27 -13
46 -30 19 -16 39 -29 44 -30 5 0 18 -7 28 -17 19 -17 45 -33 88 -55 14 -7 43
-24 66 -39 22 -16 53 -31 67 -34 14 -4 31 -13 38 -21 6 -8 18 -14 26 -14 8 0
44 -16 82 -35 37 -19 75 -35 84 -35 9 0 19 -4 22 -10 3 -5 14 -10 23 -10 10 0
35 -9 57 -20 22 -11 49 -20 62 -20 12 0 25 -4 28 -10 3 -5 17 -10 30 -10 13 0
27 -4 30 -10 3 -5 19 -10 35 -10 16 0 31 -4 34 -9 3 -5 36 -12 73 -16 37 -4
76 -13 87 -20 12 -8 62 -17 111 -21 50 -3 95 -10 100 -15 6 -4 42 -9 80 -11
66 -3 70 -4 73 -28 2 -14 7 -34 12 -45 5 -11 11 -38 12 -60 l3 -40 190 3 c115
2 194 7 202 14 8 7 13 35 13 79 l0 69 30 0 c17 0 47 7 67 15 19 8 64 15 99 15
34 0 66 5 69 10 3 6 26 10 49 10 24 0 57 7 72 15 16 8 41 15 56 15 15 0 30 5
33 10 3 6 21 10 40 10 19 0 37 5 40 10 3 5 19 10 35 10 16 0 32 5 35 10 3 6
20 10 36 10 17 0 32 6 35 15 4 8 14 15 23 15 19 0 88 23 97 33 4 4 18 7 31 7
12 0 23 4 23 8 0 5 19 16 43 26 56 24 209 99 222 108 23 19 188 118 195 118 4
0 10 6 13 14 3 8 22 22 41 31 20 10 36 21 36 25 0 5 17 19 38 31 42 26 53 35
141 118 35 34 67 61 70 61 11 0 203 203 221 233 9 15 36 47 58 71 23 25 42 49
42 55 0 6 14 26 30 44 17 19 30 39 30 43 0 5 12 23 28 39 29 33 35 42 77 123
14 28 33 56 41 63 8 6 14 17 14 25 0 22 29 43 53 37 12 -3 41 -8 65 -10 23 -3
42 -9 42 -14 0 -5 18 -9 39 -9 22 0 43 -4 46 -10 3 -5 24 -10 45 -10 21 0 41
-4 45 -9 3 -5 19 -9 36 -9 16 1 35 -4 41 -10 6 -6 23 -8 38 -5 15 3 31 0 34
-6 4 -6 22 -11 41 -11 19 0 37 -4 40 -10 3 -5 21 -10 40 -10 19 0 37 -4 40
-10 3 -5 19 -10 35 -10 16 0 32 -4 35 -10 3 -5 15 -10 25 -10 26 0 36 37 16
59 -9 10 -16 27 -16 39 0 13 -6 22 -15 22 -8 0 -23 4 -33 9 -31 15 -88 31
-115 31 -14 0 -29 5 -32 10 -3 6 -19 10 -35 10 -16 0 -32 5 -35 10 -3 6 -21
10 -40 10 -19 0 -37 5 -40 10 -3 6 -21 10 -39 10 -17 0 -36 4 -42 9 -10 10
-81 21 -131 21 -17 0 -34 4 -38 10 -3 5 -24 10 -45 10 -21 0 -42 5 -45 10 -3
6 -26 10 -50 10 -24 0 -47 5 -50 10 -3 6 -26 10 -50 10 -24 0 -47 5 -50 10 -3
6 -26 10 -50 10 -24 0 -47 4 -50 10 -3 5 -24 7 -46 4 -25 -4 -45 -1 -55 7 -9
7 -39 14 -67 15 -102 6 -182 16 -194 25 -6 6 -33 7 -61 3 -32 -4 -52 -2 -56 5
-4 6 -36 11 -76 11 -38 0 -72 5 -75 10 -3 6 -39 10 -80 10 -41 0 -77 5 -80 11
-4 6 -39 10 -78 10 -40 0 -126 4 -192 9 -260 21 -1287 34 -1303 18z m158 -291
l5 -132 67 -3 c52 -2 70 -7 77 -20 12 -22 18 -883 7 -871 -2 2 -9 64 -16 138
-6 75 -18 150 -27 170 l-15 36 -18 -38 c-15 -33 -16 -61 -12 -215 5 -198 -10
-230 -19 -39 -4 89 -10 133 -24 164 l-19 42 -13 -37 c-8 -20 -17 -86 -21 -147
l-8 -110 -7 140 c-12 231 -28 308 -59 277 -9 -9 -15 -75 -18 -225 -3 -117 -7
-192 -8 -167 -2 25 -7 101 -12 170 -12 155 -39 603 -40 651 0 55 17 70 84 75
32 2 63 7 68 11 7 4 9 52 6 134 -5 120 -3 147 11 133 3 -3 8 -65 11 -137z
m1511 84 c20 -16 22 -23 14 -46 -15 -42 -38 -52 -69 -32 -19 13 -26 26 -26 51
0 18 3 36 7 39 13 13 51 7 74 -12z m-120 -53 c-74 -135 -75 -135 -85 -93 -4
14 -11 25 -16 25 -6 0 -10 13 -10 29 0 24 7 32 38 46 20 9 51 23 67 31 17 7
31 14 33 14 1 0 -11 -24 -27 -52z m-121 -79 c0 -19 -31 -21 -50 -4 -15 14 -17
21 -9 31 9 11 15 10 35 -3 13 -8 24 -19 24 -24z m203 25 c3 -3 -8 -24 -24 -47
-16 -22 -29 -45 -29 -52 0 -7 18 -25 40 -40 22 -15 42 -35 45 -45 3 -10 19
-35 35 -55 37 -46 37 -55 5 -55 -14 0 -37 -11 -51 -25 -23 -24 -63 -33 -77
-18 -4 3 3 21 14 40 18 28 19 34 5 39 -8 3 -21 2 -27 -2 -8 -5 -10 -2 -6 8 3
10 -5 26 -21 41 l-27 26 -29 -45 c-15 -24 -25 -51 -22 -59 3 -8 1 -15 -4 -15
-20 0 -9 58 18 96 15 21 45 68 66 104 71 119 72 121 89 104z m-1803 -16 c0 -6
-29 -79 -65 -163 -36 -83 -65 -163 -65 -177 0 -15 36 -122 80 -240 44 -117 80
-220 80 -228 0 -15 -95 -80 -116 -80 -11 0 -34 42 -34 61 0 6 -6 25 -14 42 -8
18 -28 70 -44 117 -47 132 -42 124 -57 103 -29 -44 -36 -92 -35 -246 l1 -157
-27 -11 c-15 -5 -46 -12 -69 -16 l-42 -5 -7 173 c-3 96 -11 287 -17 424 -6
138 -9 277 -7 310 l3 60 55 6 c30 3 60 2 66 -3 7 -5 14 -73 18 -176 4 -92 10
-170 14 -174 4 -4 38 73 75 171 38 98 73 184 77 192 5 7 33 16 62 20 29 3 56
7 61 8 4 0 7 -4 7 -11z m-1103 -42 c3 -3 8 -204 11 -446 4 -371 3 -440 -9
-440 -8 0 -36 13 -64 28 l-50 27 -6 200 c-6 181 -13 617 -10 639 1 9 118 2
128 -8z m279 -4 c10 -7 30 -76 107 -380 22 -89 44 -159 48 -155 3 5 3 125 -2
268 -4 143 -4 264 0 268 5 5 32 7 62 5 l54 -3 6 -75 c12 -138 33 -890 25 -897
-4 -5 -40 -8 -79 -8 l-72 0 -16 65 c-9 36 -33 126 -53 200 -20 74 -51 195 -69
267 -17 73 -35 133 -40 133 -4 0 -7 -145 -7 -322 l1 -323 -23 3 c-13 1 -39 7
-59 12 l-36 10 -6 97 c-4 54 -7 266 -7 471 l0 372 78 0 c42 0 82 -4 88 -8z
m2464 -21 c0 -18 -104 -168 -150 -216 -27 -27 -50 -59 -52 -70 -5 -32 -33 -25
-33 9 -1 21 -12 38 -45 66 -39 33 -42 40 -27 46 12 4 29 -1 47 -15 16 -11 36
-21 44 -21 18 0 76 75 106 137 23 44 37 55 68 47 12 -4 22 0 25 10 7 17 17 22
17 7z m-450 -50 c0 -13 -85 -101 -98 -101 -21 0 -13 16 29 64 37 42 69 59 69
37z m80 -98 c0 -21 -61 -73 -86 -73 -13 0 -24 1 -24 3 0 1 21 25 48 54 44 47
61 52 62 16z m680 -78 c7 -8 8 -15 2 -15 -5 0 -15 7 -22 15 -7 8 -8 15 -2 15
5 0 15 -7 22 -15z m-30 -24 c0 -15 -49 -53 -59 -46 -17 10 -13 33 10 49 20 14
49 12 49 -3z m-610 -36 c10 -12 5 -25 -25 -70 -30 -45 -34 -59 -25 -70 8 -9
10 -28 6 -47 -8 -40 -125 -215 -147 -221 -21 -6 -49 10 -49 27 0 11 80 123
152 213 7 8 -5 21 -41 45 -28 18 -51 36 -51 41 0 4 15 7 33 7 28 0 39 8 67 45
35 47 59 56 80 30z m410 -15 c30 -6 55 -11 56 -13 1 -1 5 -21 9 -44 6 -45 5
-47 -55 -86 -41 -26 -52 -57 -21 -57 11 0 22 -4 25 -9 9 -15 -5 -42 -20 -39
-27 6 -204 162 -204 180 0 10 3 18 6 18 4 0 38 -28 76 -61 54 -49 72 -59 81
-50 9 10 -3 27 -57 77 -59 54 -67 65 -56 79 15 18 81 20 160 5z m268 -65 c-5
-32 -55 -27 -76 7 -15 25 -15 28 3 48 l18 20 29 -27 c17 -16 28 -36 26 -48z
m-544 -4 c12 -13 14 -21 6 -26 -13 -8 -40 12 -40 31 0 20 14 17 34 -5z m435
-147 c-15 -19 -48 -18 -70 2 -18 16 -18 18 4 45 l22 28 28 -30 c22 -24 26 -33
16 -45z m-307 39 c21 -19 23 -33 5 -33 -18 0 -49 34 -40 43 9 10 14 9 35 -10z
m-488 -226 c13 -10 16 -20 12 -35 -6 -18 -12 -21 -34 -16 -26 6 -26 6 -7 -9
19 -15 19 -16 1 -36 -15 -16 -23 -18 -38 -10 -11 6 -22 8 -25 6 -2 -3 5 -8 16
-12 44 -14 3 -75 -51 -75 -27 -1 -39 -8 -66 -45 -18 -25 -37 -45 -42 -45 -17
0 -11 16 15 40 14 13 25 29 25 37 0 7 5 13 10 13 6 0 10 5 10 10 0 6 -7 10
-15 10 -9 0 -15 -9 -15 -24 0 -28 -44 -68 -66 -59 -11 4 -6 15 21 44 39 44 42
55 19 87 -8 12 -14 29 -12 37 2 11 14 6 47 -20 48 -39 61 -43 61 -20 0 9 7 18
15 21 8 4 15 12 15 19 0 16 35 47 43 38 4 -3 7 3 7 13 0 19 17 44 30 44 3 0
14 -6 24 -13z m-242 -292 c0 -6 -15 -21 -33 -35 l-32 -25 13 25 c7 14 17 31
23 38 11 14 28 12 29 -3z"/>
<path d="M5491 3116 c-10 -11 -1 -25 44 -68 66 -62 73 -65 81 -43 5 12 -9 33
-47 71 -29 30 -56 54 -60 54 -4 0 -12 -6 -18 -14z"/>
<path d="M7885 3260 c-3 -5 -1 -10 4 -10 6 0 11 5 11 10 0 6 -2 10 -4 10 -3 0
-8 -4 -11 -10z"/>
<path d="M7677 3196 c-6 -16 11 -36 30 -36 7 0 13 11 13 25 0 18 -5 25 -19 25
-10 0 -21 -6 -24 -14z"/>
<path d="M6649 2960 c-50 -26 -107 -95 -120 -144 -29 -106 29 -186 133 -186
24 0 52 7 62 15 50 38 72 110 41 135 -36 30 -3 76 36 52 10 -7 26 -12 34 -12
17 0 72 -35 93 -60 7 -8 24 -37 38 -64 20 -38 24 -57 19 -85 -3 -20 -9 -65
-14 -101 -4 -36 -11 -74 -15 -85 -52 -136 -142 -207 -293 -229 -23 -3 -63 -1
-89 6 -77 21 -70 57 11 58 107 1 225 92 225 173 0 64 -70 137 -133 137 -45 0
-97 -48 -97 -89 0 -27 35 -71 57 -71 6 0 16 -6 22 -14 9 -10 7 -19 -8 -37 -17
-21 -28 -24 -88 -24 -58 0 -76 4 -106 25 -39 27 -57 57 -57 95 0 20 5 25 28
25 31 1 54 16 70 47 16 29 -3 71 -35 79 -42 11 -81 -17 -188 -135 -125 -137
-122 -134 -250 -243 -219 -186 -473 -346 -715 -451 -75 -32 -187 -76 -225 -88
-22 -6 -49 -15 -60 -19 -11 -4 -40 -13 -65 -20 -25 -7 -58 -17 -75 -22 -16 -6
-48 -14 -70 -19 -22 -4 -71 -15 -110 -24 -70 -15 -138 -26 -295 -45 -47 -5
-164 -10 -260 -9 -220 0 -376 14 -547 48 -29 6 -77 15 -105 21 -48 9 -79 17
-248 67 -54 15 -156 53 -215 78 -16 7 -55 23 -85 36 -90 38 -330 167 -410 222
-171 115 -303 222 -472 384 -95 91 -128 111 -166 99 -29 -10 -47 -58 -31 -84
14 -23 50 -42 78 -42 26 0 33 -26 17 -64 -29 -70 -114 -113 -183 -93 -21 6
-44 15 -50 20 -15 11 -17 47 -4 47 19 0 71 53 71 72 0 32 -37 76 -75 88 -43
14 -94 -7 -131 -55 -81 -107 41 -245 217 -245 51 0 59 -3 59 -19 0 -14 -14
-22 -58 -35 -75 -21 -106 -20 -175 3 -139 45 -221 147 -234 289 -3 34 -10 65
-14 68 -16 10 -9 85 12 126 11 22 33 52 47 65 29 27 117 73 139 73 22 0 26
-28 8 -56 -40 -61 27 -154 110 -154 61 0 135 68 135 125 0 71 -13 99 -69 155
-66 66 -117 85 -195 75 -177 -25 -311 -175 -299 -336 4 -61 20 -118 45 -169
23 -44 10 -59 -35 -41 -135 54 -160 59 -247 52 -140 -12 -237 -73 -290 -182
-29 -61 -28 -179 2 -222 60 -89 108 -120 184 -120 65 0 109 25 136 77 18 35
19 44 7 78 -14 42 -56 84 -94 94 -16 4 -34 -1 -55 -16 -51 -36 -65 -6 -31 72
22 53 64 104 100 122 42 21 113 27 136 10 13 -10 33 -12 65 -8 89 12 224 -75
277 -180 22 -43 25 -62 24 -145 0 -78 -3 -98 -17 -108 -25 -18 -30 -10 -37 50
-7 69 -46 146 -94 186 -69 57 -159 36 -198 -45 -23 -48 -13 -95 26 -128 17
-14 39 -26 48 -26 24 0 71 48 71 71 0 38 46 18 65 -28 20 -47 19 -72 -4 -125
-35 -80 -141 -135 -141 -72 0 34 -14 58 -44 78 -51 33 -111 -27 -82 -82 17
-32 244 -256 371 -366 159 -138 448 -345 579 -415 33 -17 64 -35 71 -41 24
-20 345 -178 425 -210 47 -18 90 -36 95 -40 6 -3 30 -13 55 -20 25 -7 50 -17
55 -20 6 -4 44 -18 85 -30 41 -12 79 -25 85 -28 5 -3 16 -7 25 -9 60 -11 81
-16 86 -24 3 -5 18 -9 34 -9 16 0 31 -4 34 -9 3 -5 18 -11 33 -14 29 -6 90
-20 171 -38 44 -9 144 -26 302 -49 305 -45 803 -50 1015 -9 28 5 84 14 125 19
41 5 109 16 150 25 142 30 175 36 215 42 22 3 44 9 50 14 5 5 16 9 25 9 17 0
236 67 262 81 10 5 26 9 37 9 10 0 24 7 31 15 7 8 23 15 36 15 12 0 26 5 29
10 3 6 15 10 26 10 10 0 27 4 37 9 9 5 35 17 57 26 156 67 391 182 440 215 24
17 47 30 50 30 4 0 45 25 91 55 47 30 86 55 89 55 2 0 40 26 85 58 45 31 92
64 104 72 110 75 342 274 471 404 153 155 275 289 275 303 0 7 5 13 10 13 6 0
10 15 10 34 0 25 -7 39 -22 50 -30 21 -44 20 -79 -5 -25 -18 -29 -26 -27 -65
1 -35 5 -44 17 -42 15 3 17 16 9 62 -4 25 27 44 50 30 29 -18 27 -60 -4 -89
-15 -14 -35 -25 -44 -25 -31 0 -114 50 -152 92 -35 37 -38 46 -38 97 0 56 19
101 42 101 6 0 26 -18 45 -40 41 -48 60 -50 102 -11 26 25 31 36 31 77 0 43
-4 52 -41 86 -56 52 -108 53 -165 4 -55 -47 -83 -105 -90 -187 -7 -71 -19 -85
-45 -53 -10 12 -14 46 -13 113 0 79 4 104 24 144 51 107 144 173 258 183 40 4
72 11 72 15 0 15 96 10 131 -7 52 -25 78 -54 105 -112 32 -71 32 -86 -3 -77
-81 22 -127 5 -158 -58 -27 -54 -11 -116 39 -147 30 -19 95 -30 139 -23 47 7
106 60 136 122 23 48 30 174 11 186 -5 3 -10 14 -10 25 0 26 -86 117 -132 141
-52 27 -72 19 -25 -9 78 -49 147 -160 147 -240 0 -42 -27 -110 -59 -146 -56
-63 -155 -71 -203 -16 -38 41 -36 74 7 117 37 37 70 41 89 11 8 -14 6 -21 -9
-32 -19 -14 -19 -15 -2 -21 28 -11 63 3 75 30 36 80 -23 210 -115 255 -26 13
-56 27 -65 32 -10 4 -40 8 -68 8 -27 0 -50 4 -50 9 0 13 56 24 123 24 31 1 57
4 57 9 0 12 -165 10 -197 -3 -15 -7 -57 -25 -92 -41 -38 -17 -68 -25 -73 -20
-5 5 0 31 12 63 12 31 24 89 27 135 5 77 4 84 -27 148 -34 68 -73 108 -155
156 -57 34 -203 40 -256 10z m201 -29 c122 -46 190 -144 190 -270 0 -38 -4
-72 -8 -75 -5 -3 -15 20 -22 52 -15 64 -47 127 -82 158 -43 40 -160 80 -194
67 -41 -14 -74 -45 -74 -68 0 -30 20 -43 32 -22 15 28 58 2 58 -36 0 -29 -63
-87 -95 -87 -17 0 -39 12 -61 34 -29 29 -34 41 -34 80 0 75 55 145 135 174 46
16 100 14 155 -7z m-5172 -137 c76 -31 122 -95 122 -168 0 -36 -6 -50 -31 -75
-39 -40 -78 -41 -118 -3 -37 34 -45 62 -27 88 13 17 18 17 37 6 15 -10 25 -10
32 -3 18 18 -10 61 -50 77 -33 14 -41 14 -87 0 -126 -40 -184 -114 -203 -259
-9 -74 -23 -36 -23 65 0 103 19 147 93 214 77 69 175 92 255 58z m4790 -226
c16 -16 15 -33 -3 -52 -13 -12 -20 -13 -41 -4 -22 10 -27 9 -35 -5 -12 -20
-29 -23 -29 -4 0 23 25 66 40 71 30 8 56 6 68 -6z m281 -63 c34 -40 40 -79 17
-123 -29 -56 -105 -102 -151 -92 l-30 7 25 10 c14 6 40 27 58 46 27 28 33 41
30 68 -3 32 -6 34 -38 34 -46 0 -54 33 -14 64 39 30 67 26 103 -14z m-4764
-70 c14 -13 25 -34 25 -46 0 -21 -1 -21 -19 -5 -15 14 -23 15 -44 5 -45 -20
-76 21 -41 55 22 23 51 20 79 -9z m4354 -79 c37 -77 42 -106 6 -40 l-19 36
-63 -4 -63 -4 47 48 c26 26 49 46 51 43 2 -2 21 -38 41 -79z m-4599 20 c31
-34 21 -60 -19 -51 -24 5 -32 2 -41 -15 -22 -41 21 -99 97 -132 l28 -12 -39
-4 c-78 -7 -155 54 -163 130 -4 37 -1 49 22 76 34 41 80 44 115 8z m-625 -50
l40 -13 -55 -7 c-148 -22 -235 -105 -247 -237 -5 -52 -3 -60 20 -83 27 -27 61
-34 72 -15 4 6 -1 16 -11 24 -15 11 -16 15 -5 29 31 37 108 4 126 -55 9 -28
-25 -81 -67 -103 -31 -17 -41 -18 -74 -8 -51 15 -109 64 -131 110 -28 59 -24
146 11 208 71 130 197 189 321 150z m1060 -81 c84 -79 97 -100 24 -39 -39 33
-47 35 -88 29 -35 -4 -53 -14 -74 -38 l-29 -32 20 40 c10 22 25 57 31 78 7 20
18 37 24 37 7 -1 48 -34 92 -75z m3985 40 c-7 -9 -15 -13 -17 -11 -7 7 7 26
19 26 6 0 6 -6 -2 -15z m-90 -68 c0 -2 -12 -14 -27 -28 l-28 -24 24 28 c23 25
31 32 31 24z m396 -6 c5 -5 34 -17 64 -27 79 -26 192 -22 270 9 33 14 63 21
66 16 3 -5 0 -26 -5 -46 -14 -48 -14 -124 -1 -157 5 -14 6 -26 1 -26 -8 0 -27
82 -33 140 l-3 25 -115 0 c-63 0 -130 4 -148 8 -32 8 -122 55 -122 63 0 7 16
4 26 -5z m713 -6 c31 -16 41 -33 41 -73 0 -33 -27 -62 -57 -62 -20 0 -23 4
-21 33 3 30 1 32 -31 35 -41 4 -72 -23 -108 -93 l-25 -50 6 63 c11 123 106
194 195 147z m-1189 -59 c0 -3 -4 -8 -10 -11 -5 -3 -10 -1 -10 4 0 6 5 11 10
11 6 0 10 -2 10 -4z m-4010 -26 c0 -5 -5 -10 -11 -10 -5 0 -7 5 -4 10 3 6 8
10 11 10 2 0 4 -4 4 -10z m345 0 c3 -5 1 -10 -4 -10 -6 0 -11 5 -11 10 0 6 2
10 4 10 3 0 8 -4 11 -10z m3635 2 c0 -9 -90 -75 -96 -70 -3 3 84 75 94 77 1 1
2 -3 2 -7z m-4240 -86 c60 1 100 7 138 22 65 25 68 12 5 -19 -42 -21 -62 -24
-168 -24 l-120 0 -3 -55 c-1 -30 -7 -64 -12 -75 -5 -11 -11 -29 -14 -40 -3
-11 -3 5 0 36 3 34 -1 83 -10 123 -9 37 -16 69 -16 71 0 2 26 -6 58 -18 43
-16 78 -21 142 -21z m-390 9 c39 -20 76 -72 84 -117 8 -42 -9 -61 -23 -26 -22
57 -83 94 -126 78 -22 -8 -24 -13 -15 -29 14 -26 13 -29 -9 -41 -55 -29 -92
91 -40 131 29 23 90 24 129 4z m4520 -15 c0 -5 -4 -10 -10 -10 -5 0 -36 -18
-67 -40 -32 -22 -62 -40 -67 -40 -5 0 -17 -7 -27 -16 -10 -9 -23 -14 -29 -12
-7 2 8 13 32 25 23 12 68 40 98 62 57 42 70 48 70 31z m-3380 -17 c10 -10 59
-42 109 -72 90 -55 115 -76 50 -44 -44 21 -176 110 -184 123 -10 16 4 12 25
-7z m4444 -118 c3 -8 1 -15 -4 -15 -6 0 -10 7 -10 15 0 8 2 15 4 15 2 0 6 -7
10 -15z m-1275 1 c-9 -9 -118 -66 -125 -66 -11 0 22 22 71 49 35 18 66 28 54
17z m1399 -105 c20 -10 56 -24 80 -30 23 -7 42 -17 42 -24 0 -7 -20 -32 -44
-56 l-43 -42 -6 46 c-4 43 -11 53 -71 107 -36 33 -66 64 -66 70 0 5 16 -4 35
-21 20 -17 52 -39 73 -50z m-4288 49 c0 -5 5 -10 11 -10 18 0 143 -64 132 -67
-9 -3 -158 68 -172 83 -2 2 3 4 12 4 10 0 17 -4 17 -10z m2750 -17 c0 -10
-274 -143 -295 -143 -8 0 -23 -4 -33 -10 -44 -24 -113 -48 -227 -80 -16 -5
-55 -16 -85 -25 -30 -9 -73 -20 -95 -25 -22 -4 -74 -15 -115 -25 -77 -18 -121
-24 -343 -46 -127 -12 -353 -4 -522 20 -33 5 -86 12 -118 16 -32 5 -60 12 -63
16 -3 5 -17 9 -32 9 -15 0 -79 14 -142 31 -63 17 -126 33 -140 36 -14 3 -29 9
-35 13 -5 3 -30 12 -55 19 -47 14 -83 27 -112 42 -10 5 -25 9 -33 9 -8 0 -15
5 -15 10 0 6 -7 10 -15 10 -20 0 -79 30 -72 36 2 3 42 -11 88 -30 197 -80 423
-141 674 -181 110 -17 425 -35 520 -29 172 11 238 17 323 30 176 28 402 82
517 124 166 61 248 94 325 134 91 47 100 50 100 39z m-4315 -103 c0 -34 4 -45
18 -48 25 -5 21 -22 -7 -22 -13 0 -35 9 -50 21 -43 34 -30 104 19 97 17 -3 20
-11 20 -48z m309 11 c-21 -36 -69 -88 -107 -118 -27 -21 -29 -26 -25 -83 1
-33 2 -60 0 -60 -13 0 -102 97 -100 108 2 7 29 23 60 36 63 26 127 73 158 117
27 38 36 38 14 0z m1441 19 c3 -5 2 -10 -4 -10 -5 0 -13 5 -16 10 -3 6 -2 10
4 10 5 0 13 -4 16 -10z m4075 -175 c-24 -25 -46 -45 -49 -45 -3 0 15 20 39 45
24 25 46 45 49 45 3 0 -15 -20 -39 -45z m-1080 -66 c75 -12 118 -35 142 -77
15 -26 18 -62 20 -248 l3 -219 -33 -47 c-36 -52 -33 -58 13 -28 32 21 45 25
45 12 0 -4 -75 -46 -166 -91 -123 -63 -168 -81 -177 -72 -6 6 -29 11 -51 11
-49 0 -103 25 -128 61 -11 14 -23 55 -28 95 -17 136 -33 410 -26 447 9 49 65
111 119 132 38 14 127 31 182 34 11 0 49 -4 85 -10z m974 -38 c-16 -16 -31
-27 -33 -25 -6 6 41 54 52 54 6 0 -3 -13 -19 -29z m-1593 -26 c85 -43 109 -87
120 -220 29 -364 31 -399 19 -438 -16 -53 -80 -120 -140 -146 -200 -86 -378
-52 -418 81 -6 18 -13 92 -16 163 -3 72 -10 186 -16 255 -10 134 -3 183 31
232 25 34 81 69 139 85 63 18 236 11 281 -12z m-537 -61 c3 -30 4 -60 1 -65
-4 -5 -43 -9 -88 -9 -45 0 -87 -4 -93 -8 -9 -5 -8 -100 3 -380 9 -205 13 -376
9 -379 -4 -4 -46 -9 -95 -11 l-88 -4 -6 53 c-4 30 -12 200 -18 379 -6 179 -13
327 -16 330 -3 3 -46 5 -96 5 l-92 0 -3 63 -3 62 53 1 c29 1 127 5 218 9 91 3
197 7 236 8 l71 2 7 -56z m-1806 30 c9 -2 12 -19 10 -51 l-3 -48 -95 -5 -95
-5 -6 -235 c-4 -129 -7 -268 -8 -308 l-1 -74 -32 7 c-18 4 -55 15 -83 24 l-50
16 -5 295 -5 295 -40 2 c-22 2 -64 6 -92 9 l-53 5 0 43 0 43 273 -4 c149 -3
278 -6 285 -9z m3882 12 c0 -2 -8 -10 -17 -17 -16 -13 -17 -12 -4 4 13 16 21
21 21 13z m-2722 -73 l3 -62 -98 -3 -98 -3 0 -380 0 -380 -22 1 c-13 0 -57 1
-98 2 l-75 2 -2 378 -3 377 -92 3 -93 3 0 58 c0 32 2 60 4 62 2 2 132 4 288 4
l283 0 3 -62z m-729 10 c9 -42 78 -367 102 -478 4 -22 22 -105 38 -184 17 -80
29 -147 26 -149 -8 -9 -175 10 -181 20 -4 6 -14 45 -23 87 l-16 75 -103 15
c-56 7 -105 11 -108 8 -3 -3 -12 -35 -21 -71 -17 -75 -14 -74 -119 -54 -47 8
-64 16 -64 27 0 9 24 102 54 206 29 105 75 270 101 368 l48 177 128 0 127 0
11 -47z m-1872 -25 c3 -7 -8 -2 -25 10 -17 13 -35 28 -39 34 -3 7 8 2 25 -10
17 -13 35 -28 39 -34z m5154 -58 c-30 -28 -60 -50 -65 -50 -6 0 5 13 24 28 19
15 46 37 60 49 14 12 27 22 30 22 3 0 -19 -22 -49 -49z m-5071 -12 c0 -11 -49
23 -50 35 0 4 11 0 25 -9 14 -9 25 -20 25 -26z m4970 -69 c-55 -44 -93 -69
-107 -69 -4 0 22 20 57 45 66 46 95 60 50 24z m-4875 1 c3 -5 2 -10 -4 -10 -5
0 -13 5 -16 10 -3 6 -2 10 4 10 5 0 13 -4 16 -10z m190 -134 c17 -8 44 -28 60
-42 l30 -27 -30 18 c-77 47 -125 81 -125 89 0 5 8 2 18 -6 9 -9 31 -23 47 -32z
m4545 34 c0 -5 -5 -10 -11 -10 -5 0 -7 5 -4 10 3 6 8 10 11 10 2 0 4 -4 4 -10z
m-40 -25 c-7 -8 -17 -15 -23 -15 -6 0 -2 7 9 15 25 19 30 19 14 0z m-40 -30
c0 -2 -15 -12 -32 -20 l-33 -16 24 21 c22 19 41 26 41 15z m-70 -42 c0 -5 -11
-13 -25 -20 -14 -6 -25 -8 -25 -4 0 5 10 13 23 19 28 14 27 13 27 5z m-4269
-20 c13 -15 12 -15 -8 -4 -24 12 -29 21 -14 21 5 0 15 -7 22 -17z m44 -23 c3
-5 2 -10 -4 -10 -5 0 -13 5 -16 10 -3 6 -2 10 4 10 5 0 13 -4 16 -10z m4142
-10 c-14 -11 -30 -20 -36 -20 -6 0 -11 -4 -11 -10 0 -5 -8 -10 -17 -10 -16 1
-16 2 2 15 11 8 25 18 30 23 6 5 17 12 25 15 30 11 32 7 7 -13z m-4097 -15 c7
-8 19 -15 26 -15 8 0 14 -4 14 -10 0 -5 -16 -2 -35 7 -19 9 -35 20 -35 25 0
13 17 9 30 -7z m102 -57 c73 -41 83 -48 69 -48 -14 0 -121 58 -121 66 0 8 11
4 52 -18z m113 -58 c3 -5 1 -10 -4 -10 -6 0 -11 5 -11 10 0 6 2 10 4 10 3 0 8
-4 11 -10z m150 -68 c44 -21 107 -49 140 -61 33 -13 69 -27 80 -31 11 -5 38
-14 60 -21 22 -7 45 -16 50 -19 6 -4 28 -11 50 -18 22 -6 63 -18 90 -27 103
-33 340 -89 495 -115 261 -45 712 -70 931 -51 189 16 326 31 384 41 28 5 82
14 120 20 97 17 210 42 330 74 128 35 141 39 160 46 11 5 65 23 120 41 55 17
124 42 153 55 29 13 58 24 65 24 7 0 18 5 24 11 6 6 19 9 29 7 11 -2 -33 -24
-101 -52 -66 -26 -129 -52 -140 -57 -50 -22 -385 -121 -470 -139 -33 -7 -73
-16 -90 -21 -89 -25 -347 -59 -565 -73 -187 -13 -612 -7 -680 10 -14 3 -59 10
-100 15 -241 30 -494 88 -745 171 -78 26 -239 85 -290 107 -22 10 -75 33 -117
51 -43 19 -78 37 -78 42 0 13 12 10 95 -30z"/>
<path d="M5758 1395 c-34 -19 -41 -43 -34 -119 3 -33 11 -128 16 -210 13 -198
29 -220 123 -181 72 30 74 43 56 320 -10 148 -14 172 -31 188 -25 21 -92 22
-130 2z"/>
<path d="M5074 1326 c-33 -28 -33 -28 -16 -281 23 -324 21 -320 101 -319 69 1
105 27 110 80 2 21 -5 142 -15 269 -17 219 -19 231 -43 252 -34 32 -100 32
-137 -1z"/>
<path d="M3248 1245 c-3 -5 -18 -62 -32 -125 -15 -63 -34 -144 -42 -178 -9
-35 -14 -66 -11 -68 9 -9 143 -21 151 -13 5 4 -6 90 -25 201 -19 106 -37 189
-41 183z"/>
<path d="M7352 2907 c-12 -7 -29 -23 -38 -35 -16 -23 -48 -29 -59 -12 -3 6
-19 10 -36 10 l-29 0 0 -93 c0 -54 -6 -115 -15 -142 -16 -56 -14 -63 18 -47
52 26 122 42 182 42 63 0 65 1 65 25 0 14 -6 34 -12 45 -11 17 -8 24 20 53 31
32 33 37 30 98 l-3 64 -50 2 c-27 2 -60 -3 -73 -10z m82 -23 c37 -14 -6 -124
-54 -139 -26 -8 -25 -22 2 -44 29 -24 15 -41 -32 -41 -22 0 -63 -9 -92 -20
-28 -11 -54 -18 -56 -16 -2 2 4 28 12 57 9 29 16 72 16 96 0 48 20 59 42 23
17 -27 23 -25 38 11 13 29 73 79 97 79 6 0 18 -3 27 -6z"/>
<path d="M880 2691 c0 -46 25 -111 42 -111 4 0 12 -9 18 -20 8 -15 7 -26 -6
-44 -9 -15 -13 -33 -9 -46 6 -19 12 -20 71 -14 62 7 120 -3 166 -27 34 -18 49
-11 42 19 -4 15 -10 32 -14 37 -13 17 -32 155 -26 186 7 38 -15 48 -54 25 -35
-20 -56 -20 -64 -1 -8 23 -68 45 -121 45 l-45 0 0 -49z m115 7 c14 -6 25 -14
25 -17 1 -3 12 -19 25 -36 l24 -29 21 22 c11 12 24 22 29 22 4 0 11 -27 14
-60 4 -33 14 -76 22 -96 8 -21 14 -39 12 -41 -2 -1 -26 4 -53 12 -27 8 -70 15
-96 15 -54 0 -60 11 -27 46 l21 22 -30 16 c-43 22 -72 63 -72 102 0 31 3 34
30 34 16 0 41 -5 55 -12z"/>
<path d="M7790 2696 c0 -9 5 -16 10 -16 6 0 10 4 10 9 0 6 -4 13 -10 16 -5 3
-10 -1 -10 -9z"/>
<path d="M6862 2628 c-16 -16 -15 -33 2 -47 12 -10 17 -8 26 8 6 12 17 21 25
21 20 0 19 16 -1 24 -24 9 -39 7 -52 -6z"/>
<path d="M1446 2482 c-8 -14 54 -56 66 -44 20 20 4 47 -29 50 -17 2 -34 -1
-37 -6z"/>
<path d="M490 2431 c0 -5 5 -13 10 -16 6 -3 10 -2 10 4 0 5 -4 13 -10 16 -5 3
-10 2 -10 -4z"/>
<path d="M7261 2354 c-27 -29 -18 -48 20 -42 19 2 24 9 24 32 0 38 -14 42 -44
10z"/>
<path d="M1086 2203 c-10 -10 -7 -51 4 -58 14 -9 50 4 50 18 -1 15 -45 48 -54
40z"/>
<path d="M7880 1868 c-12 -22 -12 -22 6 -6 10 10 15 20 12 24 -4 3 -12 -5 -18
-18z"/>
<path d="M7673 1700 c-13 -5 -23 -12 -23 -15 0 -9 16 -5 36 10 22 16 19 18
-13 5z"/>
<path d="M7600 1665 c-16 -19 -1 -19 24 0 16 12 17 15 4 15 -8 0 -21 -7 -28
-15z"/>
<path d="M7259 1293 c-13 -16 -12 -17 4 -4 16 13 21 21 13 21 -2 0 -10 -8 -17
-17z"/>
<path d="M5845 350 c-3 -5 -1 -10 4 -10 6 0 11 5 11 10 0 6 -2 10 -4 10 -3 0
-8 -4 -11 -10z"/>
<path d="M5760 320 c-12 -8 -11 -10 8 -10 12 0 22 5 22 10 0 13 -11 13 -30 0z"/>
<path d="M5668 283 c6 -2 18 -2 25 0 6 3 1 5 -13 5 -14 0 -19 -2 -12 -5z"/>
<path d="M5578 253 c7 -3 16 -2 19 1 4 3 -2 6 -13 5 -11 0 -14 -3 -6 -6z"/>
<path d="M5480 228 c-22 -10 -23 -12 -6 -15 10 -3 26 2 34 11 19 18 8 20 -28
4z"/>
<path d="M5376 201 c-14 -5 -16 -10 -8 -15 15 -9 52 2 52 15 0 11 -17 11 -44
0z"/>
<path d="M2908 193 c6 -2 18 -2 25 0 6 3 1 5 -13 5 -14 0 -19 -2 -12 -5z"/>
<path d="M3030 160 c8 -5 20 -10 25 -10 6 0 3 5 -5 10 -8 5 -19 10 -25 10 -5
0 -3 -5 5 -10z"/>
<path d="M5245 160 c-3 -6 5 -10 19 -10 14 0 28 5 31 10 3 6 -5 10 -19 10 -14
0 -28 -4 -31 -10z"/>
<path d="M5135 130 c-3 -5 3 -10 14 -10 11 0 23 5 26 10 3 6 -3 10 -14 10 -11
0 -23 -4 -26 -10z"/>
<path d="M3148 123 c7 -3 16 -2 19 1 4 3 -2 6 -13 5 -11 0 -14 -3 -6 -6z"/>
<path d="M3235 100 c3 -5 16 -10 28 -10 18 0 19 2 7 10 -20 13 -43 13 -35 0z"/>
<path d="M5020 100 c-12 -8 -9 -10 12 -10 15 0 30 5 33 10 8 13 -25 13 -45 0z"/>
<path d="M3365 70 c3 -5 18 -10 33 -9 24 0 25 1 7 9 -28 12 -47 12 -40 0z"/>
<path d="M4910 70 l-25 -8 27 -1 c15 -1 30 4 33 9 7 11 0 11 -35 0z"/>
<path d="M3530 42 c0 -13 52 -20 76 -11 15 6 16 8 3 8 -9 1 -31 4 -48 7 -18 4
-31 2 -31 -4z"/>
<path d="M4755 43 c-11 -3 -24 -10 -30 -15 -7 -8 -4 -9 8 -4 10 3 30 6 43 6
13 0 24 5 24 10 0 10 -11 11 -45 3z"/>
<path d="M3740 10 c0 -6 32 -10 78 -9 56 1 69 3 47 9 -45 11 -125 11 -125 0z"/>
<path d="M4360 10 l-115 -6 143 -2 c89 -1 142 2 142 8 0 6 -12 9 -27 8 -16 -1
-80 -5 -143 -8z"/>
</g>
</svg>
